<?xml version="1.0" encoding="UTF-8"?>
<svg xmlns="http://www.w3.org/2000/svg" width="307" height="60">
  <path d="M79.9 45.3h15.7c5.8 0 9-3.6 9-8.4 0-3.8-2.7-7.1-6-7.7 2.9-.6 5.4-3.2 5.4-7.1 0-4.4-3.2-7.9-8.9-7.9H79.9v31.1zM85.3 27v-8H94c2.8 0 4.4 1.7 4.4 4.1s-1.6 4-4.4 4h-8.7V27zm0 13.5v-8.6h9c3.1 0 4.8 2 4.8 4.3 0 2.7-1.8 4.3-4.8 4.3h-9zm23.3-6.5c0 7.1 5 11.8 11.8 11.8 3.6 0 6.9-1.1 9.1-3.3l-2.2-3.2c-1.6 1.6-4.2 2.5-6.4 2.5-4.2 0-6.8-2.8-7.2-6.2h17.4v-1.2c0-7.1-4.3-12.3-11.1-12.3-6.6.1-11.4 5.4-11.4 11.9h0zm11.4-7.8c4.4 0 6.3 3.3 6.3 6h-12.7c.3-2.8 2.2-6 6.4-6h0zm22.8 19.6c2.3 0 3.7-.6 4.6-1.4l-1.2-3.7c-.4.4-1.3.8-2.2.8-1.4 0-2.1-1.1-2.1-2.7V27h4.6v-4.3h-4.6v-6.2H137v6.2h-3.7V27h3.7v13c0 3.8 2 5.8 5.8 5.8h0zm14.9 0c2.3 0 3.7-.6 4.6-1.4l-1.2-3.7c-.4.4-1.3.8-2.2.8-1.4 0-2.1-1.1-2.1-2.7V27h4.6v-4.3h-4.6v-6.2H152v6.2h-3.7V27h3.7v13c0 3.8 2 5.8 5.7 5.8h0zm6.8-11.8c0 7.1 5 11.8 11.8 11.8 3.6 0 6.9-1.1 9.1-3.3l-2.2-3.2c-1.6 1.6-4.2 2.5-6.4 2.5-4.2 0-6.8-2.8-7.2-6.2H187v-1.2c0-7.1-4.3-12.3-11.1-12.3-6.6.1-11.4 5.4-11.4 11.9h0zm11.4-7.8c4.4 0 6.3 3.3 6.3 6h-12.7c.3-2.8 2.2-6 6.4-6h0zm16 19.1h4.9V29.9c1-1.6 3.7-3 5.8-3 .6 0 1.1 0 1.5.1v-4.9c-2.9 0-5.6 1.7-7.3 3.8v-3.3h-4.9v22.7zm23 .5c2.3 0 3.7-.6 4.6-1.4l-1.2-3.7c-.4.4-1.3.8-2.2.8-1.4 0-2.1-1.1-2.1-2.7V27h4.6v-4.3H214v-6.2h-4.9v6.2h-3.7V27h3.7v13c.1 3.8 2.1 5.8 5.8 5.8h0zm6.8-11.8c0 7.1 5 11.8 11.8 11.8 3.6 0 6.9-1.1 9.1-3.3l-2.2-3.2c-1.6 1.6-4.2 2.5-6.4 2.5-4.2 0-6.8-2.8-7.2-6.2h17.4v-1.2c0-7.1-4.3-12.3-11.1-12.3-6.6.1-11.4 5.4-11.4 11.9h0zm11.4-7.8c4.4 0 6.2 3.3 6.3 6h-12.7c.3-2.8 2.2-6 6.4-6h0zm29.8 19.1h4.9V30.4c0-6.1-4.4-8.2-9.4-8.2-3.6 0-6.9 1.2-9.5 3.6l2 3.4c2-1.9 4.2-2.8 6.7-2.8 3.1 0 5.3 1.6 5.3 4.2V34c-1.6-1.9-4.2-2.9-7.3-2.9-3.7 0-7.8 2.1-7.8 7.3 0 5 4.2 7.5 7.8 7.5 3 0 5.6-1.1 7.3-3v2.4zm0-5.2c-1.1 1.5-3.2 2.3-5.4 2.3-2.8 0-4.8-1.6-4.8-4 0-2.5 2.1-4.1 4.8-4.1 2.1 0 4.2.8 5.4 2.3v3.5zm38.9 5.2h4.9V29c0-4.6-2.3-6.8-6.5-6.8-3.4 0-6.3 2.1-7.6 4.2-.7-2.5-2.8-4.2-6.2-4.2s-6.4 2.2-7.3 3.6v-3.1h-4.9v22.5h4.9V29.6c1-1.5 3-3 5.2-3 2.7 0 3.7 1.6 3.7 4.1v14.7h4.9V29.5c1-1.4 3-3 5.2-3 2.6 0 3.7 1.6 3.7 4.1v14.7z" fill="#404040"></path>
  <path d="M60.2 30c0 3.8-4.7 6.6-6.1 9.9-1.4 3.4-.1 8.7-2.7 11.3s-7.9 1.3-11.3 2.7C36.9 55.3 34 60 30.2 60s-6.6-4.7-9.9-6.1c-3.4-1.4-8.7-.1-11.3-2.7s-1.3-7.9-2.7-11.3C5 36.6.3 33.8.3 30s4.7-6.6 6.1-9.9c1.4-3.4.1-8.7 2.7-11.3S17 7.5 20.4 6.1C23.6 4.7 26.5 0 30.2 0c3.8 0 6.6 4.7 9.9 6.1 3.4 1.4 8.7.1 11.3 2.7s1.3 7.9 2.7 11.3c1.4 3.3 6.1 6.1 6.1 9.9z" fill="#19b8ff"></path>
  <path d="M37.2 28.8c2.5-1.3 4.2-3.9 4.2-6.9 0-4.1-3.2-7.5-7.2-7.8H18.1v4.4h2.8v25.6c0 .9.7 1.7 1.7 1.7h11c4.9 0 8.9-4 8.9-8.9 0-3.6-2.2-6.7-5.3-8.1zM26.4 18.6H32c2.2.1 3.9 2 3.9 4.2s-1.7 4-3.9 4.2h0-5.6v-8.4zm6.2 22.2h0-6.2v-9.4h6.2c2.4.2 4.3 2.2 4.3 4.7s-1.9 4.6-4.3 4.7z" fill="#f5f5f5"></path>
</svg>
