<?xml version="1.0" encoding="UTF-8"?>
<svg xmlns="http://www.w3.org/2000/svg" xmlns:xlink="http://www.w3.org/1999/xlink" xmlns:v="https://vecta.io/nano" width="775" height="384">
  <path d="M0 0h775v384H0z" fill="#fff"></path>
  <g fill="#808285">
    <use xlink:href="#B"></use>
    <use xlink:href="#C"></use>
    <path d="M450.2 113.8c-.1 0-.2 0-.3-.1-.2-.1-.3-.2-.3-.4s0-.3.1-.5l.5-.8c.1-.2.3-.3.6-.3h1a.7.7 0 1 1 0 1.4h-.7l-.2.5c-.3.1-.5.2-.7.2zM427.8 152c-.1 0-.2 0-.3-.1-.2-.1-.3-.2-.3-.4s0-.3.1-.5l.9-1.6c.1-.2.3-.3.6-.3.1 0 .2 0 .3.1.2.1.3.2.3.4s0 .3-.1.5l-.9 1.6c-.1.2-.3.3-.6.3zm2.8-4.7c-.1 0-.2 0-.3-.1-.3-.2-.4-.6-.2-.9l.9-1.6c.1-.2.3-.3.6-.3.1 0 .2 0 .3.1.3.2.4.6.2.9l-.9 1.6c-.1.1-.3.3-.6.3zm2.8-4.8c-.1 0-.2 0-.3-.1-.3-.2-.4-.6-.2-.9l.9-1.6c.1-.2.3-.3.6-.3.1 0 .2 0 .3.1.3.2.4.6.2.9l-.9 1.6c-.1.2-.3.3-.6.3zm2.8-4.8c-.1 0-.2 0-.3-.1-.3-.2-.4-.6-.2-.9l.9-1.6c.1-.2.3-.3.6-.3.1 0 .2 0 .3.1.2.1.3.2.3.4s0 .3-.1.5l-.9 1.6c-.1.2-.3.3-.6.3zm2.8-4.8c-.1 0-.2 0-.3-.1-.2-.1-.3-.2-.3-.4s0-.4.1-.5l.9-1.6c.1-.2.3-.3.6-.3.1 0 .2 0 .3.1.3.2.4.6.2.9l-.9 1.6c-.1.2-.3.3-.6.3zm2.8-4.7c-.1 0-.2 0-.3-.1-.2-.1-.3-.2-.3-.4a.9.9 0 0 1 .1-.5l.9-1.6c.1-.2.3-.3.6-.3.1 0 .2 0 .3.1.3.2.4.6.2.9l-.9 1.6c-.1.1-.4.3-.6.3zm2.8-4.8c-.1 0-.2 0-.3-.1-.3-.2-.4-.6-.2-.9l.9-1.6c.1-.2.3-.3.6-.3.1 0 .2 0 .3.1.3.2.4.6.2.9l-.9 1.6c-.1.2-.4.3-.6.3zm2.8-4.8c-.1 0-.2 0-.3-.1-.3-.2-.4-.6-.2-.9l.9-1.6c.1-.2.3-.3.6-.3.1 0 .2 0 .3.1.2.1.3.2.3.4s0 .3-.1.5l-.9 1.6c-.2.2-.4.3-.6.3zm-21.9 37.5c-.1 0-.2 0-.3-.1-.3-.2-.4-.6-.2-.9l.5-.8c.1-.2.3-.3.6-.3.1 0 .2 0 .3.1.2.1.3.2.3.4s0 .3-.1.5l-.5.8c-.1.1-.4.3-.6.3z"></path>
    <use xlink:href="#B" x="-169.7"></use>
    <use xlink:href="#D"></use>
    <path d="M333.1 113.8c-.2 0-.5-.1-.6-.3l-.3-.6-.5.1a.7.7 0 1 1 0-1.4h1c.2 0 .5.1.6.3l.5.8a.9.9 0 0 1 .1.5c0 .2-.2.3-.3.4-.3.2-.4.2-.5.2zm22.3 38.2c-.2 0-.5-.1-.6-.3l-.9-1.6c-.2-.3-.1-.7.2-.9.1-.1.2-.1.3-.1.2 0 .5.1.6.3l.9 1.6a.9.9 0 0 1 .1.5c0 .2-.2.3-.3.4 0 .1-.1.1-.3.1zm-2.7-4.7c-.2 0-.5-.1-.6-.3l-.9-1.6c-.1-.2-.1-.3-.1-.5s.2-.3.3-.4.2-.1.3-.1c.2 0 .5.1.6.3l.9 1.6c.2.3.1.7-.2.9-.1 0-.2.1-.3.1zm-2.8-4.8c-.2 0-.5-.1-.6-.3l-.9-1.6c-.1-.2-.1-.3-.1-.5s.2-.3.3-.4.2-.1.3-.1c.2 0 .5.1.6.3l.9 1.6c.2.3.1.7-.2.9-.1.1-.2.1-.3.1zm-2.8-4.8c-.2 0-.5-.1-.6-.3l-.9-1.6c-.2-.3-.1-.7.2-.9.1-.1.2-.1.3-.1.2 0 .5.1.6.3l.9 1.6a.9.9 0 0 1 .1.5c0 .2-.2.3-.3.4s-.2.1-.3.1zm-2.8-4.8c-.2 0-.5-.1-.6-.3l-.9-1.6c-.2-.3-.1-.7.2-.9.1-.1.2-.1.3-.1.2 0 .5.1.6.3l.9 1.6a.9.9 0 0 1 .1.5c0 .2-.2.3-.3.4s-.2.1-.3.1zm-2.8-4.7c-.2 0-.5-.1-.6-.3l-.9-1.6c-.1-.2-.1-.3-.1-.5s.2-.3.3-.4.2-.1.3-.1c.2 0 .5.1.6.3l.9 1.6a.9.9 0 0 1 .1.5c0 .2-.2.3-.3.4-.1 0-.2.1-.3.1zm-2.8-4.8c-.2 0-.5-.1-.6-.3l-.9-1.6c-.1-.2-.1-.3-.1-.5s.2-.3.3-.4.2-.1.3-.1c.2 0 .5.1.6.3l.9 1.6c.2.3.1.7-.2.9-.1.1-.2.1-.3.1zm-2.8-4.8c-.2 0-.5-.1-.6-.3l-.9-1.6c-.1-.1-.1-.3-.1-.5s.2-.3.3-.4.2-.1.3-.1c.2 0 .5.1.6.3l.9 1.6c.1.2.1.3.1.5s-.2.3-.3.4-.2.1-.3.1zm21.9 37.5c-.2 0-.5-.1-.6-.3l-.5-.8c-.1-.2-.1-.3-.1-.5s.2-.3.3-.4.2-.1.3-.1c.2 0 .5.1.6.3l.5.8a.9.9 0 0 1 .1.5c0 .2-.2.3-.3.4-.1 0-.2.1-.3.1z"></path>
    <use xlink:href="#B" y="162.3"></use>
    <use xlink:href="#C" y="162.3"></use>
    <path d="M450.7 275.3c-.2 0-.5-.1-.6-.3l-.5-.8c-.1-.2-.1-.3-.1-.5s.2-.3.3-.4.2-.1.3-.1c.2 0 .5.1.6.3l.3.6.5-.1a.7.7 0 1 1 0 1.4h-.8zm-2.4-4c-.2 0-.5-.1-.6-.3l-.9-1.6c-.2-.3-.1-.7.2-.9.1-.1.2-.1.3-.1.2 0 .5.1.6.3l.9 1.6c.1.2.1.3.1.5s-.2.3-.3.4c0 .1-.2.1-.3.1zm-2.8-4.7c-.2 0-.5-.1-.6-.3l-.9-1.6c-.2-.3-.1-.7.2-.9.1-.1.2-.1.3-.1.2 0 .5.1.6.3l.9 1.6a.9.9 0 0 1 .1.5c0 .2-.2.3-.3.4 0 0-.1.1-.3.1zm-2.8-4.8c-.2 0-.4-.1-.6-.3l-.9-1.6c-.2-.3-.1-.7.2-.9.1-.1.2-.1.3-.1.2 0 .5.1.6.3l.9 1.6c.2.3.1.7-.2.9 0 0-.1.1-.3.1zm-2.8-4.8c-.2 0-.5-.1-.6-.3l-.9-1.6c-.1-.2-.1-.3-.1-.5s.2-.3.3-.4.2-.1.3-.1c.2 0 .5.1.6.3l.9 1.6c.2.3.1.7-.2.9 0 .1-.1.1-.3.1zm-2.7-4.8c-.2 0-.5-.1-.6-.3l-.9-1.6c-.1-.2-.1-.3-.1-.5s.2-.3.3-.4.2-.1.3-.1c.2 0 .5.1.6.3l.9 1.6a.9.9 0 0 1 .1.5c0 .2-.2.3-.3.4s-.2.1-.3.1zm-2.8-4.7c-.2 0-.4-.1-.6-.3l-.9-1.6c-.2-.3-.1-.7.2-.9.1-.1.2-.1.3-.1.2 0 .5.1.6.3l.9 1.6a.9.9 0 0 1 .1.5c0 .2-.2.3-.3.4-.1 0-.2.1-.3.1zm-2.8-4.8c-.2 0-.5-.1-.6-.3l-.9-1.6c-.2-.3-.1-.7.2-.9.1-.1.2-.1.3-.1.2 0 .5.1.6.3l.9 1.6c.2.3.1.7-.2.9-.1 0-.2.1-.3.1zm-2.8-4.8c-.2 0-.5-.1-.6-.3l-.9-1.6c-.1-.2-.1-.3-.1-.5s.2-.3.3-.4.2-.1.3-.1c.2 0 .5.1.6.3l.9 1.6a.9.9 0 0 1 .1.5c0 .2-.2.3-.3.4s-.2.1-.3.1zm-2.8-4.8c-.2 0-.5-.1-.6-.3l-.5-.8c-.1-.2-.1-.3-.1-.5s.2-.3.3-.4.2-.1.3-.1c.2 0 .5.1.6.3l.5.8a.9.9 0 0 1 .1.5c0 .2-.2.3-.3.4s-.2.1-.3.1z"></path>
    <use xlink:href="#B" x="26.8" y="81.2"></use>
    <path d="M497.3 194.2a.68.68 0 1 1 0-1.4h1.8a.68.68 0 1 1 0 1.4h-1.8zm-5.6 0a.68.68 0 1 1 0-1.4h1.8a.68.68 0 1 1 0 1.4h-1.8zm-5.5 0a.68.68 0 1 1 0-1.4h1.9a.68.68 0 1 1 0 1.4h-1.9zm-5.6 0a.68.68 0 1 1 0-1.4h1.9a.68.68 0 1 1 0 1.4h-1.9zm-5.5 0a.68.68 0 1 1 0-1.4h1.8a.68.68 0 1 1 0 1.4h-1.8zm-5.6 0a.68.68 0 1 1 0-1.4h1.9a.68.68 0 1 1 0 1.4h-1.9zm-5.5 0a.68.68 0 1 1 0-1.4h1.9a.68.68 0 1 1 0 1.4H464zm-5.6 0a.68.68 0 1 1 0-1.4h1.9a.68.68 0 1 1 0 1.4h-1.9zm-5.5 0a.68.68 0 1 1 0-1.4h1.8a.68.68 0 1 1 0 1.4h-1.8zm-5.6 0a.68.68 0 1 1 0-1.4h1.9a.68.68 0 1 1 0 1.4h-1.9z"></path>
    <use xlink:href="#B" x="-33.3" y="81.2"></use>
    <use xlink:href="#B" x="-196" y="81.2"></use>
    <path d="M334.6 194.2a.68.68 0 1 1 0-1.4h1.9a.68.68 0 1 1 0 1.4h-1.9zm-5.5 0a.68.68 0 1 1 0-1.4h1.9a.68.68 0 1 1 0 1.4h-1.9zm-5.6 0a.68.68 0 1 1 0-1.4h1.9a.68.68 0 1 1 0 1.4h-1.9zm-5.5 0a.68.68 0 1 1 0-1.4h1.9a.68.68 0 1 1 0 1.4H318zm-5.6 0a.68.68 0 1 1 0-1.4h1.8a.68.68 0 1 1 0 1.4h-1.8zm-5.5 0a.68.68 0 1 1 0-1.4h1.9a.68.68 0 1 1 0 1.4h-1.9zm-5.6 0a.68.68 0 1 1 0-1.4h1.9a.68.68 0 1 1 0 1.4h-1.9zm-5.5 0a.68.68 0 1 1 0-1.4h1.9a.68.68 0 1 1 0 1.4h-1.9zm-5.6 0a.68.68 0 1 1 0-1.4h1.9a.68.68 0 1 1 0 1.4h-1.9zm-5.5 0a.68.68 0 1 1 0-1.4h1.9a.68.68 0 1 1 0 1.4h-1.9z"></path>
    <use xlink:href="#B" x="-135.8" y="81.2"></use>
    <use xlink:href="#E"></use>
    <path d="M391.9 301.4a.68.68 0 0 1-.7-.7v-1.8a.68.68 0 1 1 1.4 0v1.8a.68.68 0 0 1-.7.7zm0-5.5a.68.68 0 0 1-.7-.7v-1.9a.68.68 0 1 1 1.4 0v1.9a.68.68 0 0 1-.7.7zm0-5.6a.68.68 0 0 1-.7-.7v-1.8a.68.68 0 1 1 1.4 0v1.8a.68.68 0 0 1-.7.7zm0-5.5a.68.68 0 0 1-.7-.7v-1.9a.68.68 0 1 1 1.4 0v1.9a.68.68 0 0 1-.7.7zm0-5.6a.68.68 0 0 1-.7-.7v-1.9a.68.68 0 1 1 1.4 0v1.9a.68.68 0 0 1-.7.7zm0-5.5a.68.68 0 0 1-.7-.7v-1.8a.68.68 0 1 1 1.4 0v1.8a.68.68 0 0 1-.7.7zm0-5.6a.68.68 0 0 1-.7-.7v-1.9a.68.68 0 1 1 1.4 0v1.9a.68.68 0 0 1-.7.7zm0-5.6a.68.68 0 0 1-.7-.7V260a.68.68 0 1 1 1.4 0v1.9c0 .4-.3.6-.7.6zm0-5.5a.68.68 0 0 1-.7-.7v-1.8a.68.68 0 1 1 1.4 0v1.8a.68.68 0 0 1-.7.7zm0-5.6a.68.68 0 0 1-.7-.7v-1.8a.68.68 0 1 1 1.4 0v1.8a.68.68 0 0 1-.7.7z"></path>
    <use xlink:href="#E" y="-60.2"></use>
    <use xlink:href="#E" y="-222.9"></use>
    <path d="M391.9 138.8a.68.68 0 0 1-.7-.7v-1.9a.68.68 0 1 1 1.4 0v1.9a.68.68 0 0 1-.7.7zm0-5.6a.68.68 0 0 1-.7-.7v-1.9a.68.68 0 1 1 1.4 0v1.9a.68.68 0 0 1-.7.7zm0-5.5a.68.68 0 0 1-.7-.7v-1.9a.68.68 0 1 1 1.4 0v1.9a.68.68 0 0 1-.7.7zm0-5.6a.68.68 0 0 1-.7-.7v-1.9a.68.68 0 1 1 1.4 0v1.9a.68.68 0 0 1-.7.7zm0-5.5a.68.68 0 0 1-.7-.7V114a.68.68 0 1 1 1.4 0v1.9a.68.68 0 0 1-.7.7zm0-5.6a.68.68 0 0 1-.7-.7v-1.9a.68.68 0 1 1 1.4 0v1.9a.68.68 0 0 1-.7.7zm0-5.5a.68.68 0 0 1-.7-.7v-1.9a.68.68 0 1 1 1.4 0v1.9a.68.68 0 0 1-.7.7zm0-5.6a.68.68 0 0 1-.7-.7v-1.9a.68.68 0 1 1 1.4 0v1.9a.68.68 0 0 1-.7.7zm0-5.6a.68.68 0 0 1-.7-.7v-1.8a.68.68 0 1 1 1.4 0v1.8c0 .5-.3.7-.7.7zm0-5.5a.68.68 0 0 1-.7-.7v-1.9a.68.68 0 1 1 1.4 0v1.9a.68.68 0 0 1-.7.7z"></path>
    <use xlink:href="#E" y="-162.7"></use>
    <use xlink:href="#B" x="-169.7" y="162.3"></use>
    <use xlink:href="#D" y="162.3"></use>
    <path d="M331.7 275.3a.7.7 0 1 1 0-1.4h.7l.2-.5c.1-.2.3-.3.6-.3.1 0 .2 0 .3.1s.3.2.3.4 0 .4-.1.5l-.5.8c-.1.2-.3.3-.6.3h-.9zm3.3-4c-.1 0-.2 0-.3-.1-.3-.2-.4-.6-.2-.9l.9-1.6c.1-.2.3-.3.6-.3.1 0 .2 0 .3.1s.3.2.3.4 0 .4-.1.5l-.9 1.6c-.2.2-.4.3-.6.3zm2.8-4.7c-.1 0-.2 0-.3-.1-.2-.1-.3-.2-.3-.4s0-.3.1-.5l.9-1.6c.1-.2.3-.3.6-.3.1 0 .2 0 .3.1.3.2.4.6.2.9l-.9 1.6c-.2.1-.4.3-.6.3zm2.8-4.8c-.1 0-.2 0-.3-.1-.3-.2-.4-.6-.2-.9l.9-1.6c.1-.2.3-.3.6-.3.1 0 .2 0 .3.1.3.2.4.6.2.9l-.9 1.6c-.2.2-.4.3-.6.3zm2.7-4.8c-.1 0-.2 0-.3-.1s-.3-.2-.3-.4 0-.3.1-.5l.9-1.6c.1-.2.3-.3.6-.3.1 0 .2 0 .3.1.2.1.3.2.3.4s0 .4-.1.5l-.9 1.6c-.1.2-.3.3-.6.3zm2.8-4.8c-.1 0-.2 0-.3-.1-.3-.2-.4-.6-.2-.9l.9-1.6c.1-.2.3-.3.6-.3.1 0 .2 0 .3.1s.3.2.3.4 0 .3-.1.5l-.9 1.6c-.1.2-.3.3-.6.3zm2.8-4.7c-.1 0-.2 0-.3-.1-.2-.1-.3-.2-.3-.4s0-.3.1-.5l.9-1.6c.1-.2.3-.3.6-.3.1 0 .2 0 .3.1.3.2.4.6.2.9l-.9 1.6c-.1.1-.3.3-.6.3zm2.8-4.8c-.1 0-.2 0-.3-.1-.2-.1-.3-.2-.3-.4a.9.9 0 0 1 .1-.5l.9-1.6c.1-.2.3-.3.6-.3.1 0 .2 0 .3.1.2.1.3.2.3.4s0 .4-.1.5l-.9 1.6c-.1.2-.3.3-.6.3zm2.8-4.8c-.1 0-.2 0-.3-.1-.2-.1-.3-.2-.3-.4a.9.9 0 0 1 .1-.5l.9-1.6c.1-.2.3-.3.6-.3.1 0 .2 0 .3.1s.3.2.3.4 0 .4-.1.5l-.9 1.6c-.1.2-.3.3-.6.3zm2.8-4.8c-.1 0-.2 0-.3-.1s-.3-.2-.3-.4 0-.3.1-.5l.5-.8c.1-.2.3-.3.6-.3.1 0 .2 0 .3.1.2.1.3.2.3.4s0 .3-.1.5l-.5.8c-.1.2-.4.3-.6.3z"></path>
  </g>
  <g fill="#fff">
    <path d="M477.5 196.9a3.37 3.37 0 1 1 0-6.8 3.37 3.37 0 1 1 0 6.8z"></path>
    <use xlink:href="#F"></use>
    <path d="M391.9 282.2a3.12 3.12 0 0 1-3.1-3.1 3.12 3.12 0 0 1 3.1-3.1 3.12 3.12 0 0 1 3.1 3.1 3.12 3.12 0 0 1-3.1 3.1z"></path>
    <use xlink:href="#F" x="85.6" y="-85.6"></use>
  </g>
  <g fill="#808285">
    <path d="M450.7 108.5a3.8 3.8 0 0 0 0 7.6 3.8 3.8 0 1 0 0-7.6zm0 6.9a3.01 3.01 0 0 1-3-3 3.01 3.01 0 0 1 3-3 3.01 3.01 0 0 1 3 3 3.08 3.08 0 0 1-3 3zm-118.1-6.9a3.8 3.8 0 1 0 3.8 3.8c.1-2.1-1.7-3.8-3.8-3.8zm0 6.9a3.01 3.01 0 0 1-3-3 3.01 3.01 0 0 1 3-3 3.08 3.08 0 0 1 3 3c.1 1.6-1.3 3-3 3zm118.1 155.4a3.8 3.8 0 1 0 3.8 3.8c0-2-1.7-3.8-3.8-3.8zm0 6.9a3.01 3.01 0 0 1-3-3 3.08 3.08 0 0 1 3-3 3.01 3.01 0 0 1 3 3 3.08 3.08 0 0 1-3 3zm26.8-88a3.8 3.8 0 1 0 0 7.6 3.8 3.8 0 1 0 0-7.6zm0 6.8a3.01 3.01 0 0 1-3-3 3.01 3.01 0 0 1 3-3 3.08 3.08 0 0 1 3 3 3.01 3.01 0 0 1-3 3z"></path>
    <path d="M306.3 189.7a3.8 3.8 0 1 0 3.8 3.8c.1-2.1-1.7-3.8-3.8-3.8zm0 6.8a3.01 3.01 0 0 1-3-3 3.01 3.01 0 0 1 3-3 3.08 3.08 0 0 1 3 3c0 1.7-1.3 3-3 3zm85.6 78.8a3.8 3.8 0 1 0 0 7.6 3.8 3.8 0 1 0 0-7.6zm0 6.8a3.01 3.01 0 0 1-3-3 3.08 3.08 0 0 1 3-3 3.01 3.01 0 0 1 3 3 3.01 3.01 0 0 1-3 3zm0-178a3.8 3.8 0 0 0 0 7.6 3.8 3.8 0 0 0 0-7.6zm0 6.9a3.01 3.01 0 0 1-3-3 3.01 3.01 0 0 1 3-3 3.01 3.01 0 0 1 3 3 3.01 3.01 0 0 1-3 3zm-59.3 159.8a3.8 3.8 0 1 0 3.8 3.8c.1-2-1.7-3.8-3.8-3.8zm0 6.9a3.01 3.01 0 0 1-3-3 3.08 3.08 0 0 1 3-3 3.08 3.08 0 0 1 3 3 3.01 3.01 0 0 1-3 3z"></path>
  </g>
  <circle cx="391.6" cy="193.5" r="44.7" fill="#fff"></circle>
  <path d="M581.6 269.6c0-.7.6-1.3 1.4-1.3s1.4.6 1.4 1.3-.6 1.3-1.4 1.3-1.4-.6-1.4-1.3zm2.3 2.8c.1 0 .1.1.1.1v8.3c0 .1 0 .1-.1.1H582c-.1 0-.1-.1-.1-.1v-8.3c0-.1.1-.1.1-.1h1.9zm-70.5 6.5l6.6-8.4s0-.1-.1-.1h-6.4c-.1 0-.1 0-.1-.1v-1.8c0-.1.1-.1.1-.1h9.5c.1 0 .1.1.1.1v2l-6.7 8.4v.1h6.6c.1 0 .1.1.1.1v1.8c0 .1-.1.1-.1.1h-9.6l-.1-.1.1-2c-.1 0 0 0 0 0zm25.3-10.5c0-.1.1-.1.1-.1h3.9c3.6 0 5 1.3 5 3.6 0 2.4-1.7 3.3-2.8 3.5 0 0-.1 0 0 .1l3.2 5.3c0 .1 0 .1-.1.1h-2.5c-.1 0-.1 0-.1-.1l-2.9-5.2-.1-.1H541s-.1 0-.1.1v5.2c0 .1-.1.1-.1.1h-2c-.1 0-.1-.1-.1-.1v-12.4zm4.1 5.2c1.6 0 2.7-.4 2.7-1.8 0-1.2-.8-1.7-2.7-1.7H541v3.5h1.8zm21.2 1.3h-.2c-.2-.2-.8-.8-1.7-.8-1 0-2.4.6-2.4 2.6a2.45 2.45 0 0 0 2.4 2.6c.8 0 1.5-.5 1.6-.7h.2l1.3 1.4c.1.1 0 .1 0 .2-.6.6-1.6 1.1-3 1.1-2.2 0-4.6-1.4-4.6-4.5 0-3 2.3-4.5 4.6-4.5 1.3 0 2.3.5 3 1.2.1 0 .1.1 0 .2l-1.2 1.2zm-13.6 2.5c-.1 0-.1 0 0 0 0 1 1.1 2 2.2 2 1.2 0 1.7-.5 2.2-1.1 0-.1.1-.1.1 0l1.3 1c.1 0 .1.1 0 .2-.9 1-2 1.6-3.5 1.6-2.5 0-4.6-1.7-4.6-4.5 0-2.7 2-4.5 4.5-4.5 2.3 0 4.1 2 4.1 4.6v.5c0 .1-.1.1-.1.1l-6.2.1zm4.2-1.6h0c.1-1.1-.9-2-2-2s-2.1.7-2.3 2h4.3zm39.6 1.6c-.1 0-.1 0 0 0 .1 1 1.1 2 2.2 2 1.2 0 1.7-.5 2.2-1.1 0-.1.1-.1.1 0l1.3 1c.1 0 .1.1 0 .2-.9 1-2 1.6-3.5 1.6-2.5 0-4.6-1.7-4.6-4.5 0-2.7 2-4.5 4.5-4.5 2.3 0 4.1 2 4.1 4.6v.5c0 .1-.1.1-.1.1l-6.2.1zm4.2-1.6h0c.1-1.1-.9-2-2-2-1.2 0-2.1.7-2.3 2h4.3zm-31.9-3.4h1.7c.1 0 .1 0 .1.1l.2 1.3c.9-1.7 3-1.5 3.2-1.5.1 0 .1 0 .1.2v1.6c0 .1-.1.1-.1.1s-.4-.1-.7-.1c-1.4 0-2.4 1.2-2.5 2.9v3.8c0 .1-.1.1-.1.1h-1.9c-.1 0-.1 0-.1-.1v-8.3c0-.1.1-.1.1-.1zm35.3 0h1.7c.1 0 .1 0 .1.1l.2 1.3c.9-1.7 3-1.5 3.2-1.5.1 0 .1 0 .1.2v1.6c0 .1-.1.1-.1.1s-.4-.1-.7-.1c-1.4 0-2.4 1.2-2.5 2.9v3.8c0 .1-.1.1-.1.1h-1.9c-.1 0-.1 0-.1-.1v-8.3c0-.1.1-.1.1-.1zm-16.7 1.7v-1.6c0-.1.1-.1.1-.1h1.6s.1 0 .1-.1v-1.6c0-.1 0-.1.1-.1l1.9-.7c.1 0 .1 0 .1.1v2.3s0 .1.1.1h2.2c.1 0 .1.1.1.1v1.6c0 .1-.1.1-.1.1H589v3.7c0 .7.1 1.4 1.2 1.4.4 0 .8-.1 1.1-.2.1 0 .1 0 .1.1v1.6c0 .1 0 .1-.1.1-.3.2-1 .2-1.6.2-1 0-1.7-.2-2.1-.6s-.7-1-.7-2.4v-3.9h-1.7c0 0-.1-.1-.1-.1zm-8.6 5.2c-.8 0-1.6-.5-1.6-1.5v-5.3c0-.1 0-.1-.1-.1h-1.9c-.1 0-.1.1-.1.1v5.1c0 2.1 1.6 3.6 3.7 3.6h.1c2.1 0 3.7-1.5 3.7-3.6v-5.1c0-.1-.1-.1-.1-.1h-1.9c-.1 0-.1.1-.1.1v5.3c-.1.9-.8 1.5-1.7 1.5h0zm-46 .6s.1-.1 0 0c.6.7 1.7 1.2 3 1.2 2.1 0 4.1-1.6 4.1-4.5 0-3-2.1-4.5-4.2-4.5-1.4 0-2.4.7-2.9 1.5h-.1l-.2-1.1c0-.1-.1-.1-.1-.1h-1.6l-.1.1v12.4c0 .1.1.1.1.1h1.9c.1 0 .1 0 .1-.1v-5zm2.7-.7c-1.4 0-2.5-1-2.5-2.6s1.1-2.6 2.5-2.6c.8 0 2.3.6 2.3 2.6s-1.5 2.6-2.3 2.6zm-8.9-9.6c0-.7.6-1.3 1.3-1.3.8 0 1.4.6 1.4 1.3s-.6 1.3-1.4 1.3-1.3-.6-1.3-1.3zm2.3 2.8l.1.1v8.3c0 .1-.1.1-.1.1h-1.9c-.1 0-.1-.1-.1-.1v-8.3c0-.1 0-.1.1-.1h1.9z" fill="#343e45"></path>
  <path d="M507.9 270c-.2-.1-.3 0-.5 0l-.7.2v-6.6c0-.4-.3-.6-.6-.6h-9.4a.65.65 0 0 0-.6.6v6.7l-.7-.2c-.2-.1-.4-.1-.5 0-.3 0-.8.3-.8 1.3v5.6c.1.5.4 1 1.1 1h2.4c.2.3.8.8 1.9.8 0 .8.5 1.5 1.2 1.8v1.6s0 .1-.1.1c-3.3.1-5.5 1.2-6.1 1.5-.4.2-.4.7-.4 1v1.2c0 .4.4.8.8.8s.7-.3.8-.7c0-.4-.2-.7-.6-.8 0 0-.1 0-.1-.1v-.5c0-.1.1-.2.2-.3.9-.5 3.2-.7 5-.8h.5s.1 0 .1.1l.3 3.3h-.1c-.3 0-.6.4-.6.8 0 .5.3.8.6.8h1.1c.3 0 .6-.3.6-.8s-.3-.8-.6-.8h0l.3-3.3s0-.1.1-.1h.5c1.7.1 4 .3 5 .8.1.1.2.2.2.3v.5s0 .1-.1.1c-.4.1-.6.4-.6.8s.4.7.8.7.8-.3.8-.8v-1.2c0-.3-.1-.7-.5-1-.6-.3-2.7-1.4-6.1-1.5 0 0-.1 0-.1-.1v-1.6c.7-.3 1.2-1 1.2-1.8 1.1-.1 1.7-.6 1.9-.9h2.4c.7 0 1-.6 1.1-1v-5.6c-.3-.9-.9-1.2-1.1-1.3zm-11.9 5.8l-1.1.8h-.1v-5.2c0-.2 0-.5.1-.5l1 .3.1.1v4.5zm11.7.8l-1.1-.8v-4.4s0-.1.1-.1l1-.3c.1 0 .1.2.1.4l-.1 5.2c.1 0 .1.1 0 0z" fill="#a9cf39"></path>
  <path d="M262.6 194.8c.8-.3 3.4-1.4 3.4-4.8 0-2.4-1.9-5.1-5.9-5.1h-5.3v16.8h3.6v-6.6h.2l5.2 6.6h4.3l-5.5-6.9zm-2.2-2.9h-2.2v-3.5h2.2c1.1 0 1.9.8 1.9 1.7s-.6 1.8-1.9 1.8zm-14 6.7v-2.3h3.8v-2.9h-3.8v-2.3h4.9v-3.2h-8.1v13.9h8.1v-3.2zm-9.8 3.2v-10.7h3.1v-3.2h-9.8v3.2h3.2v10.7zm-14.4 0c-3.1 0-4.8-1.7-5-2l1.8-2.5c.3.2 1.5 1.3 3.2 1.3 1.1 0 1.4-.5 1.4-.9s-.3-.8-1.5-1.3l-1-.4c-1.9-.7-3.1-2-3.1-4 0-2.4 2-4.2 4.7-4.2 2.5 0 3.9 1.2 4 1.3l-1.6 2.5c-.3-.2-1.3-.7-2.3-.7s-1.4.4-1.4.9c0 .6.6.9 1.6 1.3l.9.3c2 .7 3.2 2.2 3.2 4-.1 2.5-2.1 4.4-4.9 4.4m-8.5-13.9h-3.5v6.9l-8.1-6.9v13.9h3.5v-6.7l8.1 6.7z" fill="#6d4c9e"></path>
  <path d="M191.7 187.9c-3.9 0-6.9 3.1-6.9 7 0 3.8 3.1 6.9 6.9 6.9 3.9 0 7-3.1 7-6.9-.1-3.9-3.1-7-7-7m0 10.6c-2 0-3.6-1.7-3.6-3.7s1.6-3.7 3.6-3.7 3.6 1.7 3.6 3.7c0 2.1-1.6 3.7-3.6 3.7" fill="#00b5b2"></path>
  <path d="M168.6 201.8v-8.5l4.5 4.3 4.5-4.3v8.5h3.6V185l-8.1 7.8-8.1-7.8v16.8z" fill="#6d4c9e"></path>
  <g fill="#2767b1">
    <path d="M606 201c.2 0 .4-.2.4-.4 0-.3-.2-.4-.5-.4h-.6v1.5h.2v-.7h.3l.4.7h.2l-.4-.7zm-.3-.1h-.3v-.5h.3c.2 0 .4 0 .4.2.1.2-.1.3-.4.3m-86.1-16.8h3.3V196h6.1v3h-9.3v-14.9z"></path>
    <path d="M530.4 189h3.1v10.1h-3.1V189zm1.6-5.1a1.8 1.8 0 1 1 0 3.6 1.8 1.8 0 1 1 0-3.6h0m14.7.2h3.1v8.9l3.6-4.1h3.8l-4.1 4.7 4 5.4h-3.9l-3.3-5v5h-3.1v-14.9zm-11.4 4.9h3v1.4c.6-1.1 1.8-1.7 3-1.6 3.2 0 3.8 2.1 3.8 4.8v5.6H542v-4.9c0-1.2 0-2.7-1.6-2.7s-1.9 1.3-1.9 2.6v5h-3.1V189zm28.6 3.8c0-1-.8-1.9-1.8-1.9h-.1c-1.1-.1-2.1.8-2.2 1.9h4.1zm2.6 4.5a5.5 5.5 0 0 1-4.3 2c-3.1 0-5.7-2.1-5.7-5.4 0-3.2 2.5-5.3 5.7-5.3 2.9 0 4.8 2.1 4.8 5.3v1h-7.3c.2 1.2 1.2 2 2.4 2 .9 0 1.8-.5 2.2-1.2l2.2 1.6zm7.1-5.9c-1.6 0-2.5 1-2.5 2.6 0 1.5.9 2.6 2.5 2.6s2.5-1 2.5-2.6-.9-2.6-2.5-2.6m5.4 7.7h-2.9v-1.3a3.84 3.84 0 0 1-3.1 1.6c-3 0-5-2.2-5-5.3 0-2.8 1.8-5.4 4.7-5.4 1.3 0 2.5.4 3.2 1.3h0v-5.8h3.1v14.9zm21.2 0h-3.1v-4.9c0-1.2 0-2.7-1.6-2.7s-1.9 1.3-1.9 2.6v5h-3.1V189h3v1.4c.6-1.1 1.8-1.7 3-1.6 3.2 0 3.8 2.1 3.8 4.8v5.5zm-13.3-11.5a1.8 1.8 0 1 1 0-3.6 1.8 1.8 0 1 1 0 3.6h0m1.5 11.5h-3.2V189h3.2v10.1zm13.4-18.1h-18.1c-.9 0-1.6.7-1.6 1.5v18.2c0 .9.7 1.5 1.6 1.5h18.1c.9 0 1.6-.7 1.6-1.5v-18.2c-.1-.8-.8-1.5-1.6-1.5m4 18.5c-.8 0-1.4.7-1.4 1.5s.7 1.4 1.5 1.4 1.4-.7 1.4-1.5c-.1-.8-.7-1.4-1.5-1.4h0m0 2.7c-.7 0-1.3-.5-1.3-1.3 0-.7.5-1.3 1.2-1.3s1.3.5 1.3 1.3c0 .7-.5 1.3-1.2 1.3h0"></path>
  </g>
  <path d="M440.3 28.2c-.4-.4-.9-.6-1.6-.6s-1.2.2-1.6.7-.6 1.1-.6 2v6.5c-.8-.9-1.7-1.6-2.6-2-.6-.3-1.3-.5-1.9-.6-.5-.1-.9-.1-1.4-.1-2.2 0-4 .8-5.4 2.3s-2.1 3.7-2.1 6.4a13.61 13.61 0 0 0 .5 3.6c.3 1.1.8 2.1 1.5 2.9.6.8 1.5 1.5 2.4 1.9s2 .7 3 .7c.5 0 1 0 1.4-.1.3 0 .6-.1.8-.2.7-.2 1.3-.6 1.9-1 .7-.5 1.3-1 1.8-1.6v.4c0 .8.2 1.4.6 1.9.4.4.9.7 1.5.7s1.1-.2 1.5-.6.6-1 .6-1.9V30.1c.3-.8.1-1.4-.3-1.9zm-4.5 17.9c-.4.8-.9 1.4-1.6 1.8-.6.4-1.4.6-2.2.6h0c-.8 0-1.5-.2-2.2-.6s-1.2-1.1-1.6-1.9-.6-1.8-.6-3c0-1.1.2-2.1.5-2.9.4-.9.9-1.5 1.5-2 .7-.5 1.4-.7 2.2-.7h0c.8 0 1.5.2 2.1.7.7.4 1.2 1.1 1.6 1.9s.6 1.8.6 3c.3 1.2.1 2.3-.3 3.1zm-14.2.2c-.3-.2-.7-.4-1.1-.4a1.69 1.69 0 0 0-1 .3l-1.4 1.2c-.3.3-.7.6-1.2.8-.4.3-.8.4-1.3.6-.5.1-1 .2-1.5.2h-.3c-.7 0-1.3-.2-1.9-.6-.7-.4-1.2-.9-1.6-1.7s-.6-1.6-.6-2.6h8.8c1.2 0 2.1-.2 2.7-.5.7-.3 1-1.1 1-2.1 0-1.2-.3-2.4-1-3.5-.6-1.1-1.6-2.1-2.8-2.8-1.3-.7-2.8-1.1-4.5-1.1h-.1c-1.3 0-2.5.2-3.6.6s-2 1-2.8 1.8a6.57 6.57 0 0 0-1.7 2.9c-.4 1.2-.6 2.4-.6 3.6 0 2.8.8 4.9 2.4 6.5 1.5 1.5 3.6 2.3 6.3 2.4h.5a11.59 11.59 0 0 0 3.4-.5c1-.3 1.8-.7 2.4-1.2s1.1-1 1.4-1.5.5-1 .5-1.4-.1-.8-.4-1zm-10.5-8c.7-.8 1.6-1.1 2.8-1.1h0c1.2 0 2.1.4 2.8 1.1s1.1 1.9 1.2 3.4h-8.2c.2-1.6.7-2.7 1.4-3.4zm-8.6 7.6c-.4 0-.8.1-1 .3l-1.4 1.2c-.4.3-.7.6-1.2.8-.4.3-.8.5-1.3.6s-1 .2-1.5.2h-.3c-.7 0-1.3-.2-1.9-.6-.7-.4-1.2-1-1.6-1.7-.4-.8-.6-1.6-.6-2.6h8.8c1.2 0 2.1-.2 2.7-.5s1-1 1-2.1c0-1.2-.3-2.4-.9-3.5s-1.6-2.1-2.8-2.8c-1.3-.7-2.8-1.1-4.5-1.1h-.2c-1.3 0-2.5.2-3.6.6s-2 1-2.8 1.8a6.57 6.57 0 0 0-1.7 2.9c-.4 1.2-.6 2.4-.6 3.6 0 2.8.8 4.9 2.4 6.5 1.5 1.5 3.6 2.3 6.3 2.4h.5a11.59 11.59 0 0 0 3.4-.5c1-.3 1.8-.7 2.4-1.2.7-.5 1.1-1 1.4-1.5s.5-1 .5-1.4-.1-.8-.4-1c-.3-.3-.7-.4-1.1-.4h0zm-9.4-7.6c.7-.8 1.6-1.1 2.8-1.1h0c1.2 0 2.1.4 2.8 1.1s1.1 1.9 1.3 3.4h-8.2c.1-1.6.5-2.7 1.3-3.4zM342.9 49V38.6h.9c1.4 0 2.8-.4 4-1.1V49c0 1-.2 1.7-.7 2.2s-1 .7-1.8.7c-.7 0-1.3-.2-1.8-.7-.4-.5-.6-1.2-.6-2.2zm42.4-20.8c-.4-.4-.9-.6-1.6-.6s-1.2.2-1.6.7-.6 1.1-.6 2v6.5c-.8-.9-1.7-1.6-2.6-2-.6-.3-1.3-.5-1.9-.6-.4-.1-.9-.1-1.3-.1-2.2 0-4.1.8-5.4 2.3-1.4 1.5-2.1 3.7-2.1 6.4a13.61 13.61 0 0 0 .5 3.6c.3 1.1.8 2 1.5 2.9.6.8 1.5 1.5 2.4 1.9s2 .7 3 .7c.5 0 .9 0 1.4-.1.3 0 .6-.1.8-.2.7-.2 1.3-.6 1.9-1s1.2-1 1.8-1.6v.4c0 .8.2 1.4.6 1.9.4.4.9.7 1.5.7s1.1-.2 1.5-.6.6-1 .6-1.9V30.1a2.84 2.84 0 0 0-.4-1.9h0zm-4.6 17.9c-.4.8-.9 1.4-1.6 1.8-.6.4-1.4.6-2.1.6h0c-.8 0-1.5-.2-2.2-.6s-1.2-1.1-1.6-1.9-.6-1.8-.6-3c0-1.1.2-2.1.5-2.9.4-.9.9-1.5 1.5-2s1.4-.7 2.2-.7h.1c.8 0 1.5.2 2.1.7.7.4 1.2 1.1 1.6 1.9s.6 1.8.6 3c.1 1.2-.1 2.3-.5 3.1h0zM355 36.5v.5c.8-1 1.7-1.8 2.6-2.2.9-.5 2-.7 3.3-.7 1.2 0 2.2.3 3.2.8.9.5 1.6 1.2 2.1 2.1.3.5.5 1.1.6 1.7s.1 1.4.1 2.4v8.1c0 .9-.2 1.5-.6 2s-.9.7-1.6.7-1.2-.2-1.6-.7-.6-1.1-.6-2V42c0-1.4-.2-2.6-.6-3.3-.4-.8-1.2-1.1-2.5-1.1-.8 0-1.5.2-2.2.7a4.54 4.54 0 0 0-1.5 1.9c-.2.7-.3 1.9-.3 3.7v5.5c0 .9-.2 1.5-.6 2-.4.4-1 .7-1.6.7-.7 0-1.2-.2-1.6-.7s-.6-1.1-.6-2V36.6c0-.8.2-1.5.6-1.9s.9-.6 1.5-.6c.4 0 .7.1 1.1.3.3.2.6.5.8.8-.1.4 0 .8 0 1.3zM342.9 24c3-1.1 6.5-1 9.1 1.2a5.09 5.09 0 0 1 1.3 1.6c.3.8-.9-.1-1.1-.2-.8-.5-1.7-1-2.6-1.3-5.1-1.5-9.9 1.2-12.9 5.5-1.3 1.9-2.1 3.9-2.7 6.1-.1.2-.1.6-.3.8-.1.2-.1-.7-.1-.7.1-.9.3-1.8.5-2.7 1.3-4.6 4.4-8.6 8.8-10.3h0zm5.9 8.4c-.1 2-1.7 3.6-3.7 3.5-1.9-.1-3.4-1.6-3.5-3.5-.1-2 1.5-3.6 3.5-3.7s3.6 1.5 3.7 3.5v.2z" fill="#214193"></path>
  <path d="M382.8 344.9c0 5.1-4 8.9-9 8.9-4.9 0-9-3.8-9-8.9 0-5.2 4-8.9 9-8.9s9 3.7 9 8.9zm-3.9 0c0-3.2-2.3-5.4-5-5.4s-5 2.2-5 5.4 2.3 5.4 5 5.4 5-2.2 5-5.4z" fill="#e94435"></path>
  <path d="M402.2 344.9c0 5.1-4 8.9-9 8.9-4.9 0-9-3.8-9-8.9 0-5.2 4-8.9 9-8.9 4.9 0 9 3.7 9 8.9zm-4 0c0-3.2-2.3-5.4-5-5.4s-5 2.2-5 5.4 2.3 5.4 5 5.4 5-2.2 5-5.4z" fill="#f8bb15"></path>
  <path d="M420.7 336.5v16c0 6.6-3.9 9.3-8.5 9.3-4.3 0-6.9-2.9-7.9-5.3l3.4-1.4c.6 1.5 2.1 3.2 4.5 3.2 2.9 0 4.8-1.8 4.8-5.2v-1.3h-.1c-.9 1.1-2.6 2-4.7 2-4.5 0-8.6-3.9-8.6-8.9s4.1-9 8.6-9c2.1 0 3.8.9 4.7 2h.1v-1.5l3.7.1zm-3.5 8.5c0-3.2-2.1-5.4-4.8-5.4s-5 2.3-5 5.4 2.3 5.4 5 5.4c2.7-.1 4.8-2.3 4.8-5.4z" fill="#547dbe"></path>
  <path d="M426.8 327.1v26.1H423v-26.1h3.8z" fill="#34a751"></path>
  <path d="M441.7 347.9l3 2c-1 1.5-3.3 4-7.4 4-5.1 0-8.9-3.9-8.9-8.9 0-5.3 3.8-8.9 8.4-8.9s6.9 3.7 7.6 5.7l.4 1-11.9 4.9c.9 1.8 2.3 2.7 4.3 2.7 2.1-.1 3.5-1.1 4.5-2.5zm-9.4-3.3l8-3.3c-.4-1.1-1.8-1.9-3.3-1.9-2 0-4.8 1.8-4.7 5.2z" fill="#e94435"></path>
  <path d="M350.5 342.6v-3.8h12.8c.1.7.2 1.4.2 2.3 0 2.8-.8 6.4-3.3 8.9-2.4 2.5-5.5 3.9-9.7 3.9-7.6 0-14.1-6.2-14.1-13.9 0-7.6 6.4-13.9 14.1-13.9 4.2 0 7.2 1.7 9.5 3.8l-2.7 2.7c-1.6-1.5-3.8-2.7-6.8-2.7-5.6 0-9.9 4.5-9.9 10.1s4.4 10.1 9.9 10.1c3.6 0 5.7-1.5 7-2.8 1.1-1.1 1.8-2.6 2.1-4.7h-9.1z" fill="#547dbe"></path>
  <path d="M290.4 269.1c0-.1-.1-.2-.2-.3-.2-.1-.6-.2-1.3-.2-1.6 0-3 .8-3.6 2.1v-1.6c0-.1-.1-.3-.3-.3h0-2.4c-.1 0-.3.1-.3.3h0v11c0 .1.1.2.3.2h2.5c.1 0 .3-.1.3-.2v-4.9c0-2.2 1.5-3.3 3.5-3.3a3.73 3.73 0 0 1 1.2.2c.2.1.3-.1.3-.3v-2.7zm-16.1 8.5c-1.7 0-3.1-1.2-3.1-3s1.3-3.1 3.1-3.1c1.7 0 3 1.2 3 3.1.1 1.8-1.2 3-3 3h0zm0-9c-3.5 0-6.2 2.4-6.2 6s2.6 6 6.2 6c3.5 0 6.2-2.4 6.2-6s-2.6-6-6.2-6zm-14 9c-1.7 0-3.1-1.2-3.1-3s1.3-3.1 3.1-3.1c1.7 0 3.1 1.2 3.1 3.1 0 1.8-1.4 3-3.1 3zm0-9c-3.5 0-6.2 2.4-6.2 6s2.6 6 6.2 6c3.5 0 6.2-2.4 6.2-6s-2.6-6-6.2-6zm-14 9.1c-1.7 0-3-1.2-3-3.1s1.3-3.1 3-3.1 3 1.2 3 3.1-1.3 3.1-3 3.1zm5.7-13.4h-2.5c-.1 0-.3.1-.3.3v6c-.8-1.1-2.1-2-3.9-2-2.8 0-5.2 2.2-5.2 6s2.4 6 5.2 6c1.7 0 3-.7 3.8-1.9v1.4c0 .1.1.2.3.2h2.5c.1 0 .3-.1.3-.2v-15.6c.1-.1 0-.2-.2-.2h0zm-13.5 12.6c0 2.6-1.9 3.7-5 3.7-2.1 0-3.9-.6-5-1.7-.1-.1-.1-.2 0-.3l1.5-1.9c.1-.1.2-.1.4 0 .8.8 2 1.3 3.4 1.3.8 0 1.5-.2 1.5-.9 0-.6-.6-.8-2.5-1.2-1.7-.3-3.8-1.1-3.8-3.6 0-2.3 1.8-3.7 4.8-3.7 2 0 3.4.6 4.4 1.5.1.1.1.2 0 .3l-1.4 1.8c-.1.1-.2.1-.3.1-.7-.6-1.8-1-2.9-1-.9 0-1.5.3-1.5.8 0 .6.6.7 2.7 1.1 2.1.5 3.7 1.2 3.7 3.7h0zm-11.6 0c0 2.6-1.9 3.7-5 3.7-2.1 0-3.9-.6-5-1.7-.1-.1-.1-.2 0-.3l1.5-1.9c.1-.1.2-.1.4 0 .8.8 2 1.3 3.4 1.3.8 0 1.5-.2 1.5-.9 0-.6-.6-.8-2.5-1.2-1.7-.3-3.8-1.1-3.8-3.6 0-2.3 1.8-3.7 4.8-3.7 2 0 3.4.6 4.4 1.5.1.1.1.2 0 .3l-1.4 1.8c-.1.1-.3.1-.4 0-.7-.6-1.8-1-2.9-1-.9 0-1.5.3-1.5.8 0 .6.6.7 2.7 1.1 2.1.6 3.8 1.4 3.8 3.8h0zm-15.1-1.2c0 1.3-1 2.4-2.6 2.4-1.1 0-1.6-.5-1.6-1.2 0-.6.5-1.1 1.4-1.3l2.8-.3v.4zm-2-7.1c-2.4 0-4.2.8-5 2.4-.1.1 0 .3.1.3l1.8 1.3c.1.1.3.1.3-.1.5-.9 1.7-1.2 2.8-1.2 1.4 0 2 .5 2 1.2v.2c0 .3-.2.4-.6.5l-3.1.3c-2.1.2-3.7 1.5-3.7 3.6s1.6 3.6 3.9 3.6c1.8 0 2.9-.9 3.5-1.8v1.3c0 .1.1.3.3.3h2.5c.1 0 .3-.1.3-.3v-6.8c-.1-3.3-1.7-4.8-5.1-4.8h0zm-7.5-4.1v15.6c0 .1-.1.2-.3.2h-2.5c-.1 0-.3-.1-.3-.2v-15.6c0-.1.1-.2.3-.2h2.5c.2 0 .3.1.3.2zm-11.5 13.2c-1.7 0-3-1.2-3-3.1s1.3-3.1 3-3.1 3 1.2 3 3.1-1.2 3.1-3 3.1zm5.7-8.9H194c-.1 0-.3.1-.3.3h0v1.4c-.6-1-2-1.9-3.7-1.9-2.8 0-5.3 2.1-5.3 6 0 3.8 2.3 5.9 5.4 5.9 1.7 0 2.9-.7 3.7-1.8v.7c0 1.7-.8 3-3.4 3-1.3 0-2.3-.4-3.2-1.2-.1-.1-.3-.1-.4 0l-1.1 1.9c-.1.2-.1.4 0 .5 1.2 1 2.7 1.7 4.9 1.7 4.8 0 6.2-2.7 6.2-5.7v-10.5c0-.1-.1-.3-.3-.3h0z" fill="#13a94b"></path>
  <path d="M513.3 93.5c10.4 0 18.9 8.5 18.9 18.9s-8.5 18.9-18.9 18.9-18.9-8.5-18.9-18.9c0-10.5 8.5-18.9 18.9-18.9z" fill="#4372b7"></path>
  <path d="M520.7 117.8l.8-5.5h-5.2v-3.5c0-1.5.7-3 3.1-3h2.4v-4.6s-2.2-.4-4.2-.4c-4.3 0-7.1 2.6-7.1 7.4v4.2h-4.8v5.5h4.8V131c1 .2 2 .2 3 .2s2-.1 3-.2v-13.2h4.2z" fill="#fff"></path>
  <path d="M228.7 118.2h-2.5v-1.6h-.1c-.8 1.1-2.4 1.9-3.9 1.9-1.8 0-3.2-.7-4.2-1.9-.9-1.1-1.4-2.6-1.4-4.1 0-1.6.4-2.9 1.5-4.1 1.2-1.3 2.6-2 4.3-2 1.5 0 2.9.7 3.8 2v-1.6h2.5v11.4zm-5.8-9c-2 0-3.4 1.5-3.4 3.5 0 1.9 1.5 3.3 3.4 3.3 2 0 3.3-1.4 3.3-3.4-.1-1.9-1.4-3.4-3.3-3.4zm19.4 9h-2.5v-1.6h-.1c-.8 1.3-2.3 1.9-3.8 1.9-1.7 0-3.1-.8-4.1-1.9-.9-1.1-1.5-2.6-1.5-4.1s.5-3 1.5-4.1 2.7-1.9 4.2-1.9c1.3 0 2.7.5 3.6 1.6v-5h2.7v15.1zm-6-9c-1.8 0-3.3 1.6-3.3 3.3 0 1.9 1.4 3.5 3.3 3.5a3.44 3.44 0 0 0 3.4-3.4 3.37 3.37 0 0 0-3.4-3.4zm7.7 6.6l5.1-6.5h-4.5v-2.4h7.8v2.4l-5 6.5h5.4v2.4H244v-2.4zm20.3-8.9v11.3h-2.5V117h-.1c-.6 1.1-1.7 1.6-2.9 1.6-1.4 0-2.7-.5-3.6-1.6-1-1.1-1.1-2.3-1.1-3.7v-6.4h2.7v5.6c0 .7 0 1.7.4 2.3.4.7 1.1 1.1 2 1.1 2.1 0 2.4-1.9 2.4-3.5v-5.6h2.7v.1zm2.2 0h2.5v1h.1c.7-1 1.9-1.4 3.1-1.4s2.4.5 3.3 1.4l.3.3c.9 1.2.9 2.6.9 4.1v5.9H274v-5.3c0-.9 0-2-.5-2.8-.4-.6-1.1-1-1.8-1-.8 0-1.5.4-1.9 1-.5.8-.5 2-.5 2.9v5.1h-2.7l-.1-11.2zm24 11.3H288v-1.6c-.8 1.1-2.4 1.9-3.9 1.9-1.8 0-3.2-.7-4.2-1.9-.9-1.1-1.4-2.6-1.4-4.1 0-1.6.4-2.9 1.5-4.1 1.2-1.3 2.6-2 4.3-2 1.5 0 2.9.7 3.8 2v-1.6h2.5v11.4h-.1zm-5.9-9c-2 0-3.4 1.5-3.4 3.5 0 1.9 1.5 3.3 3.4 3.3 2 0 3.3-1.4 3.3-3.4 0-1.9-1.4-3.4-3.3-3.4zm-70.7 2.1c0-4.1-1.5-7.5-4.3-9.9-2.5-2.2-6.2-3.3-10.1-3.3v3.3c3.2 0 6 .9 7.9 2.6 2.1 1.7 3.1 4.3 3.1 7.4 0 5-4.1 9.1-9.2 9.1-4.1 0-7.6-3.3-7.6-7.5 0-1.6.7-3.2 1.8-4.2 1.2-1.1 2.7-1.7 4.4-1.7 1.4 0 2.7.4 3.5 1.1s1.3 1.8 1.3 3.1c0 2.2-1.6 3.7-3.8 3.7v3.3c4.1 0 7.2-3 7.2-7 0-2.2-.9-4.2-2.4-5.6-1.5-1.3-3.5-2-5.7-2-2.5 0-4.9 1-6.7 2.7-1.7 1.8-2.7 4.1-2.7 6.6 0 6 4.9 10.8 10.9 10.8 6.8-.1 12.4-5.6 12.4-12.5z" fill="#289a48"></path>
  <path d="M426.7 193.5c0 4.4-5.5 7.7-7.1 11.6-1.7 4-.2 10.2-3.2 13.2s-9.2 1.5-13.2 3.2c-3.9 1.6-7.2 7.1-11.6 7.1s-7.7-5.5-11.6-7.1c-4-1.7-10.2-.2-13.2-3.2s-1.5-9.2-3.2-13.2c-1.6-3.9-7.1-7.2-7.1-11.6s5.5-7.7 7.1-11.6c1.7-4 .2-10.2 3.2-13.2s9.2-1.5 13.2-3.2c3.9-1.6 7.2-7.1 11.6-7.1s7.7 5.5 11.6 7.1c4 1.7 10.2.2 13.2 3.2s1.5 9.2 3.2 13.2c1.6 3.9 7.1 7.2 7.1 11.6z" fill="#19b8ff"></path>
  <path d="M399.8 192.2c2.9-1.5 4.9-4.6 4.9-8.1 0-4.8-3.7-8.7-8.5-9.1h-18.9v5.2h3.3v29.9c0 1.1.9 2 2 2h13c5.7 0 10.4-4.7 10.4-10.4-.1-4.3-2.6-7.9-6.2-9.5zm-12.7-12h6.5c2.5.2 4.6 2.3 4.6 4.9s-2 4.7-4.6 4.9h0-6.5v-9.8zm7.2 26h0-7.3v-11.1h7.3c2.8.2 5.1 2.6 5.1 5.5 0 3-2.2 5.4-5.1 5.6z" fill="#f5f5f5"></path>
  <path d="M452.7 112.4c0 1.1-.9 2-2 2s-2-.9-2-2 .9-2 2-2c1.1-.1 2 .8 2 2z" fill="#4372b7"></path>
  <path d="M330.6 112.4c0 1.1.9 2 2 2s2-.9 2-2-.9-2-2-2c-1.1-.1-2 .8-2 2z" fill="#289a48"></path>
  <path d="M452.7 274.7c0-1.1-.9-2-2-2s-2 .9-2 2 .9 2 2 2 2-.9 2-2z" fill="#a9cf39"></path>
  <path d="M479.5 193.5c0-1.1-.9-2-2-2s-2 .9-2 2 .9 2 2 2 2-.9 2-2z" fill="#2767b1"></path>
  <path d="M304.3 193.5c0 1.1.9 2 2 2s2-.9 2-2-.9-2-2-2-2 .9-2 2z" fill="#6d4c9e"></path>
  <path d="M391.9 281.1c1.1 0 2-.9 2-2s-.9-2-2-2-2 .9-2 2 .9 2 2 2z" fill="#e94435"></path>
  <path d="M391.9 105.9c-1.1 0-2 .9-2 2s.9 2 2 2 2-.9 2-2-.9-2-2-2z" fill="#214193"></path>
  <circle cx="332.6" cy="274.7" r="2" fill="#13a94b"></circle>
  <path d="M479.7 112.4v-2.3l1.9 1.1 2 1.2-2 1.1-1.9 1.1zm4.7 0v-2.3l1.9 1.1 2 1.2-2 1.1-1.9 1.1zm-180.8 0v-2.3l-1.9 1.1-2 1.2 2 1.1 1.9 1.1zm-4.7 0v-2.3l-1.9 1.1-2 1.2 2 1.1 1.9 1.1zm180.8 162.3v2.2l1.9-1.1 2-1.1-2-1.2-1.9-1.1zm4.7 0v2.2l1.9-1.1 2-1.1-2-1.2-1.9-1.1zm22.1-81.2v2.3l1.9-1.1 2-1.2-2-1.1-1.9-1.1zm4.7 0v2.3l1.9-1.1 2-1.2-2-1.1-1.9-1.1zm-233.9 0v-2.2l-2 1.1-1.9 1.1 1.9 1.2 2 1.1zm-4.7 0v-2.2l-2 1.1-1.9 1.1 1.9 1.2 2 1.1zm119.3 114.6h-2.3l1.2 2 1.1 1.9 1.1-1.9 1.2-2zm0 4.7h-2.3l1.2 2 1.1 1.9 1.1-1.9 1.2-2zm0-233.9h2.3L393 77l-1.1-2-1.1 2-1.2 1.9zm0-4.7h2.3l-1.2-1.9-1.1-2-1.1 2-1.2 1.9zm-88.3 200.5v2.2l-1.9-1.1-2-1.1 2-1.2 1.9-1.1zm-4.7 0v2.2l-1.9-1.1-2-1.1 2-1.2 1.9-1.1z" fill="#808285"></path>
  <path d="M757.6 218.4v-.7c.7 0 1.4-.1 2.1-.2l.1.7-2.2.2zm-4.2 0a30.34 30.34 0 0 1-4.2-.6l.1-.7c1.4.3 2.7.5 4.1.6v.7zm-8.3-1.6c-1.3-.4-2.7-.9-4-1.5l.3-.6 3.9 1.4-.2.7zm-7.7-3.4l-3.6-2.2.4-.6c1.1.8 2.3 1.5 3.5 2.2l-.3.6zm-6.9-4.8c-1.1-.9-2.1-1.9-3-2.9l.5-.5c.9 1 1.9 2 3 2.9l-.5.5zm-5.7-6.2l-2.3-3.5.6-.4c.7 1.2 1.5 2.3 2.3 3.4l-.6.5zm-4.3-7.2c-.6-1.3-1-2.6-1.4-4l.7-.2 1.4 3.9-.7.3zm4.3-6.3v-.7c1.5 0 2.9-.2 4.1-.4l.1.7c-1.2.2-2.6.4-4.2.4zm-4.1-.2c-.1 0-.1 0 0 0h0c-1.5-.1-2.9-.3-4.2-.6l.1-.7 4.1.6v.7zm12.4-1.6l-.3-.6c1.3-.7 2.2-1.6 2.8-2.7l.6.3c-.7 1.3-1.7 2.3-3.1 3zm-20.7 0c-1.4-.4-2.7-1-3.9-1.6l.3-.6c1.2.6 2.5 1.1 3.8 1.5l-.2.7zm5.9 0c0-.2-.1-.5-.1-.7-.1-1-.1-2-.1-2.9v-.6h.7v.6l.1 2.9c0 .2.1.5.1.7h-.7zm-13.4-3.7a39.16 39.16 0 0 1-3.3-2.7l.5-.5a40.31 40.31 0 0 0 3.2 2.6l-.4.6zm31.2-3.4c-.2-1.2-.6-2.5-1.3-3.8l.6-.3c.8 1.4 1.2 2.7 1.4 4l-.7.1zm-17-1.3l-.7-.1c.2-1.6.5-2.9.9-4.1l.7.2c-.4 1.2-.7 2.5-.9 4zm-20.3-1l-2.4-3.5.6-.4c.7 1.2 1.5 2.3 2.3 3.4l-.5.5zm33.6-4.8c-1-1-2.1-1.9-3.2-2.4l.3-.6c1.2.6 2.4 1.5 3.4 2.6l-.5.4zm-10.5-1.7l-.5-.5c1.1-1.2 2.4-1.8 3.9-1.9v.7c-1.3.1-2.5.7-3.4 1.7zm-27.4-.7c-.6-1.2-1.1-2.5-1.6-3.9l.7-.2 1.6 3.8-.7.3zm-3-7.9l-1.1-4 .7-.2 1.1 4-.7.2zm-2.1-8.1l-.8-4.1.7-.1.8 4.1-.7.1zm-1.6-8.2l-.7-4.1.7-.1.7 4.1-.7.1zm-1.4-8.3l-.7-4.1.7-.1.7 4.1-.7.1zm-1.4-8.2l-.8-4.1.7-.1.8 4.1-.7.1zm-1.7-8.2l-1.1-4 .7-.2 1.1 4-.7.2zm-2.5-7.9c-.5-1.3-1.1-2.6-1.7-3.8l.6-.3 1.7 3.8-.6.3zm-3.8-7.3c-.8-1.2-1.7-2.2-2.6-3.2l.5-.5 2.7 3.3-.6.4zm-5.7-5.8c-1.1-.8-2.3-1.4-3.6-2l.3-.6c1.3.6 2.5 1.2 3.7 2l-.4.6zm-7.7-3.3l-2.1-.4.1-.7 2.1.4-.1.7z" fill="#939598"></path>
  <path d="M652.9 99.5l5.2-13.9-41.5-23.4z" fill="#d1d3d4"></path>
  <path d="M670.5 78.7l-12.4 6.9-41.5-23.4 35.6 26.7-15.1 8.3-25.2-38.1z" fill="#e6e7e8"></path>
  <path d="M646.2 92.1l6.7 7.4-.7-10.6z" fill="#bcbec0"></path>
  <g fill="#e6e7e8">
    <path d="M74.6 162c-11.7 0-22.7-4.6-31-12.8-8.3-8.3-12.8-19.3-12.8-31s4.6-22.7 12.8-31c8.3-8.3 19.3-12.8 31-12.8s22.7 4.6 31 12.8c8.3 8.3 12.8 19.3 12.8 31s-4.6 22.7-12.8 31c-8.3 8.3-19.3 12.8-31 12.8zm0-82c-21.1 0-38.2 17.1-38.2 38.2s17.1 38.2 38.2 38.2 38.2-17.1 38.2-38.2S95.7 80 74.6 80zm0 64.4c-14.4 0-26.2-11.7-26.2-26.2S60.2 92 74.6 92s26.2 11.7 26.2 26.2-11.8 26.2-26.2 26.2zm0-47.9c-12 0-21.7 9.8-21.7 21.7s9.8 21.7 21.7 21.7c12 0 21.7-9.8 21.7-21.7s-9.7-21.7-21.7-21.7z"></path>
    <circle cx="74.6" cy="118.2" r="8.5"></circle>
  </g>
  <path d="M74.6 118.1l7.6-14.3.2 6.5 3.4-2.8c-.1-.1-.1-.3 0-.4l2.5-2.1c.1-.1.3-.1.4 0h0L127 74v-4.8l9.6-7.8v6.2l6.1 1.3-9.6 7.8-4.7-1-38.3 31c.1.1.1.3 0 .4l-2.5 2.1c-.1.1-.3.1-.4 0h0l-3.5 2.8 6.5 1.6-15.6 4.5z" fill="#d1d3d4"></path>
  <defs>
    <path id="B" d="M476 113a.68.68 0 1 1 0-1.4h1a.68.68 0 1 1 0 1.4h-1z"></path>
    <path id="C" d="M470.8 113a.68.68 0 1 1 0-1.4h1.7a.68.68 0 1 1 0 1.4h-1.7zm-5.2 0a.68.68 0 1 1 0-1.4h1.7a.68.68 0 1 1 0 1.4h-1.7zm-5.3 0a.68.68 0 1 1 0-1.4h1.7a.68.68 0 1 1 0 1.4h-1.7zm-5.2 0a.68.68 0 1 1 0-1.4h1.7a.68.68 0 1 1 0 1.4h-1.7z"></path>
    <path id="D" d="M326.4 113a.68.68 0 1 1 0-1.4h1.7a.68.68 0 1 1 0 1.4h-1.7zm-5.2 0a.68.68 0 1 1 0-1.4h1.7a.68.68 0 1 1 0 1.4h-1.7zm-5.2 0a.68.68 0 1 1 0-1.4h1.7a.68.68 0 1 1 0 1.4H316zm-5.2 0a.68.68 0 1 1 0-1.4h1.7a.68.68 0 1 1 0 1.4h-1.7z"></path>
    <path id="E" d="M391.9 306.1a.68.68 0 0 1-.7-.7v-1a.68.68 0 1 1 1.4 0v1a.68.68 0 0 1-.7.7z"></path>
    <path id="F" d="M306.3 196.8a3.33 3.33 0 0 1-3.3-3.3 3.33 3.33 0 0 1 3.3-3.3 3.33 3.33 0 0 1 3.3 3.3 3.33 3.33 0 0 1-3.3 3.3z"></path>
  </defs>
</svg>
